<?xml version="1.0" encoding="utf-8"?>
<!-- Generator: Adobe Illustrator 15.0.0, SVG Export Plug-In . SVG Version: 6.00 Build 0)  -->
<!DOCTYPE svg PUBLIC "-//W3C//DTD SVG 1.1//EN" "http://www.w3.org/Graphics/SVG/1.1/DTD/svg11.dtd">
<svg version="1.1" id="Layer_1" xmlns="http://www.w3.org/2000/svg" xmlns:xlink="http://www.w3.org/1999/xlink" x="0px" y="0px"
	 width="31.253px" height="36px" viewBox="0 0 31.253 36" enable-background="new 0 0 31.253 36" xml:space="preserve">
<text transform="matrix(-0.0011 -1 1 -0.0011 27.9219 35.9922)" font-family="'Athelas-Regular'" font-size="8.2054">STUDIOS</text>
<g>
	<path d="M12.617,18.723c-1.947,0.794-4.191,0.43-6.064-0.444C4.668,17.389,2.961,16,1.89,14.154
		c-1.066-1.813-1.774-3.863-1.876-6.013C-0.11,6.016,0.603,3.686,2.311,2.19c1.672-1.504,4.011-2.117,6.219-1.835
		c1.107,0.141,2.2,0.508,3.167,1.121c0.978,0.63,1.741,1.438,2.4,2.332c1.305,1.798,2.034,3.875,2.553,5.93
		c0.514,2.065,0.798,4.155,1.038,6.218c0.225,2.062,0.488,4.088,0.695,6.172c0.219,2.061,0.333,4.228,0.202,6.291
		c-0.085,2.092-0.348,4.218-1.355,6.259c-0.141,0.247-0.307,0.522-0.597,0.715c-0.379,0.244-0.774,0.083-1.008-0.05
		c-0.5-0.285-0.884-0.611-1.278-1c-0.379-0.383-0.696-0.821-0.973-1.283c-0.264-0.47-0.466-0.961-0.662-1.467
		c-0.711-2.024-0.842-4.2-0.669-6.312c0.16-2.106,0.72-4.233,1.554-6.133c0.812-1.981,1.928-3.849,3.466-5.356
		c0.755-0.758,1.64-1.417,2.632-1.845c0.253-0.104,0.518-0.193,0.805-0.235c0.145-0.019,0.297-0.024,0.453,0.006
		c0.082,0.018,0.146,0.038,0.239,0.083c0.055,0.035,0.106,0.063,0.177,0.124c0.259,0.21,0.317,0.564,0.238,0.827
		c-0.076,0.269-0.229,0.495-0.413,0.677c0.285-0.408,0.376-1.057,0-1.26c-0.359-0.231-0.84,0.034-1.245,0.275
		c-0.847,0.524-1.561,1.22-2.196,1.985c-1.268,1.535-2.208,3.334-2.897,5.193c-0.741,1.918-1.266,3.814-1.612,5.808
		c-0.322,1.973-0.435,4.03,0.101,5.96c0.25,0.957,0.769,1.841,1.39,2.603c0.306,0.364,0.693,0.745,1.088,0.978
		c0.206,0.113,0.404,0.068,0.454-0.021c0.116-0.131,0.188-0.339,0.246-0.562c0.199-0.921,0.139-1.96,0.108-2.961l-0.045-3.039
		c-0.046-2.066-0.064-4.032-0.226-6.086l-0.52-6.158c-0.179-2.043-0.396-4.064-0.824-6.023c-0.428-1.951-1.064-3.858-2.133-5.46
		c-0.531-0.788-1.194-1.525-1.939-2.041C10.182,2.097,9.284,1.752,8.35,1.598C6.482,1.286,4.445,1.741,2.983,2.965
		c-1.487,1.207-2.22,3.181-2.188,5.158c0.011,1.987,0.603,3.988,1.557,5.766c0.937,1.783,2.524,3.193,4.324,4.133
		c1.793,0.925,3.963,1.376,5.93,0.667L12.617,18.723z"/>
</g>
<ellipse stroke="#000000" stroke-miterlimit="10" cx="18.921" cy="10.097" rx="0.553" ry="0.607"/>
</svg>
