<?xml version="1.0" encoding="utf-8"?>
<!-- Generator: Adobe Illustrator 15.0.0, SVG Export Plug-In . SVG Version: 6.00 Build 0)  -->
<!DOCTYPE svg PUBLIC "-//W3C//DTD SVG 1.1//EN" "http://www.w3.org/Graphics/SVG/1.1/DTD/svg11.dtd">
<svg version="1.1" id="Layer_1" xmlns="http://www.w3.org/2000/svg" xmlns:xlink="http://www.w3.org/1999/xlink" x="0px" y="0px"
	 width="246.88px" height="281.992px" viewBox="0 0 246.88 281.992" enable-background="new 0 0 246.88 281.992"
	 xml:space="preserve">
<text transform="matrix(-0.0011 -1 1 -0.0011 220.397 282.0518)" font-family="'Athelas-Regular'" font-size="65">STUDIOS</text>
<g>
	<path d="M99.157,145.225c-7.612,3.1-16.05,3.979-24.241,3.131c-8.213-0.842-16.233-3.293-23.705-6.793
		c-7.489-3.532-14.474-8.104-20.732-13.563c-3.125-2.733-6.066-5.692-8.742-8.896c-2.698-3.196-5.048-6.68-7.145-10.268
		C10.38,101.671,6.981,94.03,4.473,86.08c-2.496-7.949-4.111-16.233-4.42-24.663c-0.311-8.41,0.722-17.017,3.701-25.102
		c2.951-8.095,7.903-15.502,14.408-21.282C24.643,9.237,32.525,5.105,40.854,2.77c8.338-2.342,17.14-2.95,25.755-1.825
		c8.607,1.127,17.079,4.014,24.538,8.786c1.862,1.192,3.657,2.5,5.366,3.919l1.21,1.028l1.25,1.113
		c0.802,0.736,1.587,1.484,2.358,2.249c3.075,3.065,5.867,6.39,8.388,9.884c5.045,6.995,9.014,14.629,12.203,22.474
		c3.194,7.852,5.656,15.919,7.663,24.042c4.014,16.272,6.196,32.723,8.015,49.077l2.681,24.387c0.917,8.13,1.835,16.29,2.634,24.5
		c0.805,8.208,1.438,16.473,1.794,24.789c0.146,4.158,0.237,8.334,0.16,12.508c-0.038,4.06-0.139,8.221-0.311,12.347
		c-0.387,8.267-0.876,16.567-2.298,24.835c-0.719,4.131-1.601,8.255-2.748,12.349c-1.154,4.093-2.489,8.166-4.501,12.138
		c-0.518,0.988-1.097,1.967-1.797,2.912c-0.344,0.476-0.723,0.943-1.152,1.39c-0.434,0.449-0.883,0.849-1.517,1.26
		c-1.155,0.761-2.7,1.081-3.99,0.852c-1.303-0.199-2.381-0.712-3.372-1.232c-1.985-1.068-3.632-2.324-5.284-3.622
		c-1.643-1.329-3.217-2.741-4.679-4.263c-2.938-3.034-5.419-6.477-7.563-10.112c-1.1-1.812-1.935-3.758-2.773-5.678
		c-0.861-1.938-1.654-3.874-2.349-5.861c-2.768-7.943-4.292-16.257-4.993-24.596c-0.693-8.346-0.597-16.745,0.181-25.068
		c0.774-8.326,2.225-16.582,4.31-24.684c1.006-4.062,2.281-8.054,3.635-12.025c0.689-1.981,1.403-3.959,2.2-5.91l0.6-1.463
		l0.247-0.595l0.274-0.716l1.144-2.922c3.134-7.773,6.882-15.315,11.359-22.427c2.232-3.558,4.628-7.017,7.198-10.346
		c2.597-3.309,5.384-6.471,8.347-9.457c1.478-1.496,3.005-2.943,4.579-4.337c0.776-0.708,1.599-1.367,2.407-2.037
		c0.792-0.646,1.699-1.372,2.55-1.961c3.444-2.425,6.987-4.69,10.9-6.421c1.957-0.853,3.996-1.603,6.214-1.96
		c1.108-0.168,2.274-0.233,3.468-0.021c0.604,0.118,1.167,0.288,1.771,0.599c0.407,0.215,1.018,0.593,1.44,0.962
		c0.918,0.761,1.604,1.841,1.884,2.974c0.286,1.136,0.229,2.285-0.028,3.336c-0.536,2.102-1.674,3.93-3.117,5.389
		c1.15-1.688,1.962-3.614,2.128-5.552c0.071-0.961-0.014-1.915-0.355-2.731c-0.336-0.817-0.904-1.475-1.636-1.927
		c-0.396-0.242-0.679-0.375-1.206-0.574c-0.329-0.109-0.769-0.191-1.178-0.205c-0.84-0.046-1.737,0.097-2.627,0.344
		c-1.787,0.507-3.543,1.381-5.229,2.37c-3.365,2.015-6.583,4.425-9.579,7.033c-1.465,1.251-2.832,2.701-4.231,4.126
		c-1.388,1.426-2.728,2.898-4.017,4.414c-2.593,3.019-4.977,6.212-7.226,9.493c-2.264,3.271-4.359,6.66-6.298,10.138
		c-3.856,6.969-7.161,14.249-9.964,21.717l-1.025,2.817l-0.258,0.722l-0.318,0.832l-0.531,1.388c-0.69,1.859-1.383,3.724-2.02,5.61
		c-1.3,3.767-2.387,7.611-3.48,11.454c-2.112,7.711-3.812,15.547-5.07,23.454c-1.219,7.909-2.001,15.906-1.922,23.906
		c0.072,7.988,0.969,16.004,3.217,23.647c0.562,1.904,1.191,3.808,1.934,5.632c0.767,1.842,1.706,3.587,2.615,5.339
		c1.862,3.494,4.149,6.762,6.705,9.789c1.286,1.506,2.647,2.955,4.134,4.262c1.512,1.28,3.059,2.627,4.684,3.498
		c0.813,0.423,1.684,0.666,2.427,0.637c0.751-0.028,1.3-0.3,1.786-0.761c0.193-0.191,0.476-0.518,0.692-0.857
		c0.224-0.339,0.431-0.714,0.619-1.11c0.368-0.8,0.667-1.676,0.922-2.579c0.515-1.811,0.836-3.737,1.062-5.686
		c0.229-1.949,0.371-3.929,0.462-5.917c0.174-3.979,0.196-7.992,0.187-12.009c-0.028-8.034,0.085-16.094-0.035-24.183l-0.155-12.192
		c-0.057-4.007-0.109-8.011-0.252-12.027c-0.219-8.034-0.721-16.096-1.32-24.186c-0.606-8.091-1.361-16.205-2.12-24.349
		l-2.207-24.449c-1.496-16.18-3.312-32.285-6.732-47.898c-1.725-7.801-3.871-15.477-6.663-22.855
		c-2.798-7.369-6.239-14.452-10.595-20.861c-2.177-3.202-4.581-6.229-7.223-9.016c-0.663-0.694-1.338-1.376-2.025-2.043
		l-1.013-0.957l-1.1-0.99c-1.403-1.234-2.888-2.382-4.442-3.439c-6.22-4.235-13.522-6.989-21.093-8.196
		C57.957,7.192,50.092,7.508,42.62,9.384c-7.468,1.87-14.549,5.338-20.418,10.297c-5.875,4.933-10.497,11.39-13.362,18.586
		c-2.904,7.21-4.123,15.124-4.062,23.046c0.055,7.936,1.354,15.901,3.532,23.619c2.188,7.721,5.26,15.22,9.135,22.277
		c1.928,3.531,4.07,6.918,6.561,10.051c2.477,3.15,5.234,6.095,8.187,8.834c5.911,5.473,12.611,10.149,19.816,13.808
		c7.214,3.671,14.979,6.337,23.026,7.435c8.023,1.1,16.369,0.523,24.048-2.308L99.157,145.225z"/>
</g>
<path stroke="#000000" stroke-width="7" stroke-miterlimit="10" d="M153.487,76.927c0,2.66-1.965,4.813-4.382,4.813
	c-2.414,0-4.382-2.153-4.382-4.813c0-2.649,1.968-4.803,4.382-4.803C151.522,72.124,153.487,74.277,153.487,76.927z"/>
</svg>
